<?xml version="1.0" standalone="no"?>
<!DOCTYPE svg PUBLIC "-//W3C//DTD SVG 20010904//EN"
 "http://www.w3.org/TR/2001/REC-SVG-20010904/DTD/svg10.dtd">
<svg version="1.0" xmlns="http://www.w3.org/2000/svg"
 width="584.000000pt" height="584.000000pt" viewBox="0 0 584.000000 584.000000"
 preserveAspectRatio="xMidYMid meet">
<metadata>
Created by potrace 1.11, written by Peter Selinger 2001-2013
</metadata>
<g transform="translate(0.000000,584.000000) scale(0.100000,-0.100000)"
fill="#000000" stroke="none">
<path d="M2808 5795 c-2 -2 -39 -6 -83 -9 -44 -3 -95 -7 -113 -10 -18 -3 -50
-8 -72 -11 -461 -69 -963 -307 -1309 -622 -135 -122 -291 -293 -355 -387 -14
-21 -26 -33 -27 -25 0 8 -1 212 -1 454 -1 474 -1 477 -54 511 -14 10 -42 19
-62 20 -80 7 -112 7 -118 1 -3 -3 -17 -2 -30 3 -13 5 -24 6 -24 2 0 -4 -24 -6
-52 -4 -64 3 -113 -23 -132 -71 -19 -46 -17 -5321 2 -5354 6 -12 24 -30 40
-41 24 -18 45 -20 177 -21 125 -1 156 1 185 16 70 36 68 6 66 763 0 374 2 680
6 680 4 0 20 -17 35 -38 15 -20 33 -42 38 -48 6 -7 21 -27 35 -45 53 -71 310
-318 407 -392 179 -136 372 -250 564 -333 81 -35 323 -118 371 -128 13 -3 46
-10 73 -16 28 -6 59 -12 71 -14 11 -2 45 -9 75 -15 191 -37 551 -46 749 -17
14 2 48 7 75 11 28 3 58 9 68 11 10 3 30 7 45 9 54 7 273 66 342 92 8 3 20 7
25 9 51 13 289 122 390 178 54 30 209 127 215 135 3 3 28 22 55 41 28 19 55
39 61 45 7 5 31 26 55 45 258 207 498 507 658 823 63 123 128 277 136 319 2
10 7 24 12 31 4 6 8 17 10 22 1 6 13 51 27 100 35 124 66 286 84 430 9 75 8
461 -1 535 -18 141 -21 159 -43 268 -33 161 -105 379 -175 530 -22 46 -39 88
-39 93 0 5 -4 9 -10 9 -5 0 -10 7 -10 15 0 9 -25 57 -55 107 -30 50 -55 95
-55 100 0 4 -4 8 -8 8 -5 0 -14 10 -19 23 -15 30 -136 192 -203 269 -105 122
-246 256 -365 347 -22 17 -45 35 -52 41 -33 28 -179 122 -260 168 -159 91
-328 166 -493 217 -151 47 -200 60 -274 71 -22 3 -43 7 -46 9 -3 2 -26 6 -50
9 -25 4 -61 9 -80 12 -19 3 -51 7 -70 10 -39 5 -407 13 -412 9z m302 -510
c140 -11 164 -14 335 -51 46 -9 184 -52 245 -76 58 -22 273 -125 325 -156 313
-185 588 -471 767 -797 40 -74 107 -216 113 -240 3 -12 14 -43 25 -70 21 -48
72 -245 86 -330 52 -323 31 -652 -60 -950 -42 -137 -68 -208 -81 -217 -5 -4
-7 -8 -3 -8 11 0 -133 -276 -163 -314 -5 -6 -43 -57 -84 -114 -109 -146 -299
-335 -425 -422 -19 -14 -44 -32 -54 -42 -11 -10 -24 -18 -28 -18 -5 0 -14 -5
-21 -10 -28 -24 -103 -70 -114 -70 -6 0 -13 -3 -15 -7 -7 -16 -192 -101 -313
-143 -80 -29 -221 -69 -260 -75 -11 -2 -47 -8 -80 -14 -112 -20 -190 -26 -355
-26 -187 0 -258 6 -405 35 -27 6 -61 12 -74 15 -32 6 -220 63 -246 75 -11 4
-40 17 -65 26 -144 58 -354 179 -480 278 -99 77 -106 84 -206 184 -220 221
-386 485 -486 772 -52 149 -77 254 -105 440 -10 67 -10 437 0 502 4 26 9 64
13 85 9 64 13 83 18 101 3 9 7 28 10 42 12 65 72 250 105 325 73 163 173 338
248 435 101 130 268 305 353 370 18 14 47 37 65 53 18 15 37 27 43 27 6 0 12
4 14 9 9 25 231 150 398 224 45 21 204 75 255 88 73 18 166 38 205 44 22 3 54
8 72 11 18 2 83 7 143 11 61 3 111 6 112 7 3 2 92 -2 173 -9z"/>
<path d="M2625 4545 c-20 -14 -47 -38 -60 -53 -28 -33 -58 -66 -144 -158 -36
-38 -109 -117 -161 -173 -52 -57 -113 -123 -135 -146 -22 -24 -60 -65 -84 -91
-40 -44 -175 -191 -274 -297 -20 -22 -74 -80 -120 -130 -45 -49 -108 -117
-140 -151 -32 -33 -65 -74 -73 -89 -21 -40 -29 -118 -15 -160 9 -28 158 -182
616 -639 331 -332 612 -611 623 -621 36 -33 115 -41 169 -17 51 23 158 138
167 180 9 50 7 92 -8 119 -8 14 -245 256 -527 538 l-513 513 25 27 c13 15 33
37 44 48 11 12 65 71 120 130 55 60 119 129 142 154 24 25 60 64 80 87 21 22
81 87 133 144 52 56 109 117 126 136 17 18 73 79 125 135 52 56 111 120 132
143 72 77 91 162 53 233 -24 42 -107 128 -143 147 -48 24 -113 21 -158 -9z"/>
</g>
</svg>
