<?xml version="1.0" encoding="UTF-8" standalone="no"?>
<!DOCTYPE svg PUBLIC "-//W3C//DTD SVG 1.1//EN" "http://www.w3.org/Graphics/SVG/1.1/DTD/svg11.dtd">
<svg version="1.1" xmlns="http://www.w3.org/2000/svg" xmlns:xlink="http://www.w3.org/1999/xlink" preserveAspectRatio="xMidYMid meet" viewBox="290.41707763671866 167.1352294921877 83 91.25000000000011" width="65" height="72.5"><defs><path d="M369.42 208.14C369.42 228.56 352.84 245.14 332.42 245.14C312 245.14 295.42 228.56 295.42 208.14C295.42 187.71 312 171.14 332.42 171.14C352.84 171.14 369.42 187.71 369.42 208.14Z" id="d2rMYJwEU7"></path><path d="M297.17 168.39C298.23 168.39 299.08 169.24 299.08 170.3C299.08 187.32 299.08 236.45 299.08 253.47C299.08 254.53 298.23 255.39 297.17 255.39C296.02 255.39 294.48 255.39 293.33 255.39C292.28 255.39 291.42 254.53 291.42 253.47C291.42 236.45 291.42 187.32 291.42 170.3C291.42 169.24 292.28 168.39 293.33 168.39C294.48 168.39 296.02 168.39 297.17 168.39Z" id="b3qWKr9ShF"></path><path d="M330.87 189.28C331.51 189.97 331.51 191.04 330.87 191.73C327.05 195.87 316.72 207.06 312.9 211.2C312.29 211.86 311.25 211.86 310.64 211.2C310.18 210.71 309.96 210.47 309.51 209.98C308.87 209.29 308.87 208.22 309.51 207.53C313.33 203.39 323.66 192.2 327.48 188.06C328.09 187.4 329.13 187.4 329.74 188.06C330.19 188.55 330.42 188.79 330.87 189.28Z" id="c7gL5BL72"></path><path d="M330.54 228.98C329.89 229.63 328.84 229.63 328.19 228.98C324.21 225.01 313.46 214.26 309.49 210.28C308.84 209.63 308.84 208.58 309.49 207.93C309.96 207.46 310.2 207.22 310.67 206.75C311.32 206.1 312.37 206.1 313.02 206.75C317 210.72 327.75 221.47 331.72 225.45C332.37 226.1 332.37 227.15 331.72 227.8C331.25 228.27 331.01 228.51 330.54 228.98Z" id="f1jdOP9ISJ"></path></defs><g><g><use xlink:href="#d2rMYJwEU7" opacity="1" fill="#ffffff" fill-opacity="0"></use><g><use xlink:href="#d2rMYJwEU7" opacity="1" fill-opacity="0" stroke="#000000" stroke-width="8" stroke-opacity="1"></use></g></g><g><use xlink:href="#b3qWKr9ShF" opacity="1" fill="#000000" fill-opacity="1"></use></g><g><use xlink:href="#c7gL5BL72" opacity="1" fill="#000000" fill-opacity="1"></use><g><use xlink:href="#c7gL5BL72" opacity="1" fill-opacity="0" stroke="#000000" stroke-width="2" stroke-opacity="1"></use></g></g><g><use xlink:href="#f1jdOP9ISJ" opacity="1" fill="#000000" fill-opacity="1"></use><g><use xlink:href="#f1jdOP9ISJ" opacity="1" fill-opacity="0" stroke="#000000" stroke-width="2" stroke-opacity="1"></use></g></g></g></svg>